<svg xmlns="http://www.w3.org/2000/svg" viewBox="0 0 512 512">
  <rect width="512" height="512" rx="100" fill="#2563eb" />
  <path d="M256 64L128 128V256C128 354 181 442 256 480C331 442 384 354 384 256V128L256 64Z" fill="#ffffff" />
  <rect x="236" y="200" width="40" height="150" fill="#2563eb" />
  <rect x="180" y="255" width="150" height="40" fill="#2563eb" />
  <circle cx="256" cy="140" r="25" fill="#eab308" />
  <path d="M236 170 C200 170 170 200 170 236 C170 250 180 260 190 260 C200 260 210 250 210 236 C210 220 220 210 236 210 C250 210 260 220 260 236 C260 250 270 260 280 260 C290 260 300 250 300 236 C300 200 270 170 236 170 Z" fill="#2563eb" opacity="0.3" />
</svg>
